<svg xmlns="http://www.w3.org/2000/svg" width="12.305" height="14" viewBox="0 0 12.305 14"><defs><style>.a{fill:#fff;}</style></defs><g transform="translate(-31)"><g transform="translate(33.461)"><path class="a" d="M124.691,0a3.691,3.691,0,1,0,3.691,3.691A3.7,3.7,0,0,0,124.691,0Z" transform="translate(-121 0)"/></g><g transform="translate(31 8.203)"><g transform="translate(0)"><path class="a" d="M41.745,301.591A5.262,5.262,0,0,0,37.973,300H36.332a5.262,5.262,0,0,0-3.773,1.591,5.38,5.38,0,0,0-1.56,3.8.41.41,0,0,0,.41.41H42.895a.41.41,0,0,0,.41-.41A5.38,5.38,0,0,0,41.745,301.591Z" transform="translate(-31 -300)"/></g></g></g></svg>