<svg xmlns="http://www.w3.org/2000/svg" width="24" height="16" viewBox="0 0 24 16"><defs><style>.a{fill:#ff7555;}</style></defs><g transform="translate(0)"><g transform="translate(0)"><path class="a" d="M30.188,1.709h2.959a.5.5,0,0,1,.5.5v.43h1.387a.5.5,0,0,1,.5.5v.143a3.527,3.527,0,0,0,1.818-.653A30.1,30.1,0,0,1,40.337,1.1l.022-.009a4.231,4.231,0,0,1,3.249.051l2,.717L47.3.169a.5.5,0,0,1,.7,0l5.541,5.544a.494.494,0,0,1,0,.7l-9.469,9.474a.537.537,0,0,1-.7,0L38.312,10.83c-.132.011-.268.017-.409.017a3.979,3.979,0,0,1-3.108-1.865H30.188a.5.5,0,0,1-.5-.5V2.207A.5.5,0,0,1,30.188,1.709ZM47.65,1.225,46.516,2.36a2.168,2.168,0,0,0,2.268,0Zm3.7,5.975,1.134-1.135L51.353,4.931a2.172,2.172,0,0,0,0,2.27Zm-7.631,7.635L44.856,13.7a2.165,2.165,0,0,0-2.268,0Zm-1.851-1.852a3.161,3.161,0,0,1,3.7,0l5.063-5.066a3.166,3.166,0,0,1,0-3.7L49.5,3.077a3.161,3.161,0,0,1-3.7,0L44.723,4.154A1.972,1.972,0,0,1,46.2,5.24a2.838,2.838,0,1,1-3.261,3.513l-1.68.571a3.18,3.18,0,0,1-.527,2.523ZM44.9,8.089l-.013,0-1,.338a1.841,1.841,0,1,0,2.5-2.1A2.2,2.2,0,0,1,44.9,8.089Zm-4.879,3.04a2.179,2.179,0,0,0,.318-1.035,3.869,3.869,0,0,1-.878.475ZM35.53,8.286A3.073,3.073,0,0,0,37.9,9.852a3.62,3.62,0,0,0,.519-.037h0a2.85,2.85,0,0,0,1.843-1.009c.01-.015.053-.072.06-.081A.5.5,0,0,1,40.6,8.5l3.956-1.344a1.117,1.117,0,0,0,.812-1.318h0a.969.969,0,0,0-1.191-.668L39.719,6.579a.5.5,0,0,1-.3-.949l3.546-1.124L43,4.474h0l1.836-1.837-1.578-.565-.017-.007-.005,0-.02-.009a3.223,3.223,0,0,0-2.478-.042,28.818,28.818,0,0,0-2.889,1.477,4.477,4.477,0,0,1-2.315.788Zm-1.885-.3h.89V3.633h-.89Zm-2.959,0h1.963V2.705H30.686Z" transform="translate(-29.691 -0.023)"/></g></g></svg>